<?xml version="1.0" encoding="UTF-8" standalone="no"?>
<svg
   xmlns:dc="http://purl.org/dc/elements/1.1/"
   xmlns:cc="http://creativecommons.org/ns#"
   xmlns:rdf="http://www.w3.org/1999/02/22-rdf-syntax-ns#"
   xmlns:svg="http://www.w3.org/2000/svg"
   xmlns="http://www.w3.org/2000/svg"
   width="92.651184"
   height="87.74929"
   version="1.1"
   id="svg326">
  <metadata
     id="metadata332">
    <rdf:RDF>
      <cc:Work
         rdf:about="">
        <dc:format>image/svg+xml</dc:format>
        <dc:type
           rdf:resource="http://purl.org/dc/dcmitype/StillImage" />
        <dc:title></dc:title>
      </cc:Work>
    </rdf:RDF>
  </metadata>
  <defs
     id="defs330" />
  <g
     id="g1526"
     transform="translate(-265.66547,-188.05074)">
    <path
       d="m 333.75894,226.00539 c 8.97836,4.49304 -3.97475,12.85802 5.35868,28.61273 4.20995,7.70573 8.70503,10.99288 14.52594,5.51732 3.35996,-2.82949 2.07954,-6.55613 3.94114,-2.143 1.25318,7.46419 -6.5383,14.55608 -16.81706,14.01125 -21.73714,-2.93301 -28.62052,-34.26808 -38.57782,-38.27895 13.18104,-1.36843 30.22241,-6.26556 31.57003,-7.71935 z"
       id="path79"
       style="opacity:1;vector-effect:none;fill:#d7a762;fill-opacity:1;stroke:#000000;stroke-width:1.19999981;stroke-linecap:round;stroke-linejoin:round;stroke-miterlimit:4;stroke-dasharray:none;stroke-dashoffset:0;stroke-opacity:1" />
    <path
       d="m 338.78526,272.04909 c -1.90973,-0.35414 -5.30602,-1.85243 -7.66344,-3.36887 -2.42734,-1.56185 -7.07499,-5.57544 -6.78803,-5.85694 0.0935,-0.0999 1.47838,0.6992 3.07845,1.77978 4.97819,3.33255 10.45039,4.95797 15.34322,4.54934 5.83907,-0.49034 10.86086,-3.13278 13.62147,-7.17361 l 1.49836,-2.18841 -0.29967,1.98864 c -0.36324,2.47898 -2.8151,6.14751 -5.11259,7.66396 -3.62331,2.39726 -9.15363,3.4506 -13.67777,2.60611 z"
       id="path81"
       style="opacity:0.15;stroke:none;stroke-width:1.19999981;stroke-linecap:round;stroke-linejoin:round" />
    <path
       d="m 344.06313,232.43349 c 0,21.5163 -17.39008,38.90732 -38.89929,38.90732 -21.5092,0 -38.89837,-17.39011 -38.89837,-38.90732 0,-21.5172 17.38917,-38.91185 38.89837,-38.91185 21.50921,0.002 38.89929,17.39374 38.89929,38.91185 z"
       id="path83"
       style="fill:#d7a762;fill-opacity:1;stroke:#000000;stroke-width:1.19999981;stroke-linecap:round;stroke-linejoin:round" />
    <path
       id="use1389"
       d="m 342.52148,221.57617 c 0.021,0.53416 0.041,1.06805 0.041,1.60742 0,22.20753 -17.94823,40.15625 -40.14844,40.15625 -14.6518,0 -27.44685,-7.8205 -34.45703,-19.52148 4.85886,15.94628 19.65982,27.52148 37.20703,27.52148 21.50921,0 38.89844,-17.38995 38.89844,-38.90625 0,-3.77094 -0.54431,-7.4113 -1.54102,-10.85742 z"
       style="opacity:0.15;vector-effect:none;fill:#000000;fill-opacity:1;stroke:none;stroke-width:1.19999981;stroke-linecap:round;stroke-linejoin:round;stroke-miterlimit:4;stroke-dasharray:none;stroke-dashoffset:0;stroke-opacity:1" />
    <path
       d="m 273.02989,266.22848 c 0,7.95453 6.44205,8.97155 14.39517,8.97155 7.95312,0 14.39517,-1.00794 14.39517,-8.97155 0.01,-7.95454 -6.71175,-12.32954 -14.39517,-14.3999 -11.96601,-3.20361 -14.39517,6.45444 -14.39517,14.3999 z"
       id="path115"
       style="fill:#d7a762;fill-opacity:1;stroke:#000000;stroke-width:1.19999981;stroke-linecap:round;stroke-linejoin:round" />
    <path
       d="m 298.74541,270.66885 c 0.57755,2.15209 -1.14239,2.90577 -3.34634,3.496 -2.20396,0.59932 -4.07555,0.79909 -4.65128,-1.34391 -0.57664,-2.15209 0.74646,-4.37682 2.95132,-4.96705 2.20395,-0.59932 4.46239,0.67196 5.03812,2.81496 z"
       id="path117"
       style="fill:#e6e6e6;stroke:#000000;stroke-width:1.19999981;stroke-linecap:round;stroke-linejoin:round" />
    <path
       d="m 284.17044,273.42933 c -0.57574,2.15208 -2.43734,1.94323 -4.65128,1.353 -2.20395,-0.59024 -3.92208,-1.353 -3.34634,-3.50508 0.57573,-2.14301 2.83417,-3.4052 5.03813,-2.82405 2.20395,0.59024 3.52705,2.81497 2.95131,4.96705 z"
       id="path119"
       style="fill:#e6e6e6;stroke:#000000;stroke-width:1.19999981;stroke-linecap:round;stroke-linejoin:round" />
    <path
       d="m 291.20729,272.53944 c 9.1e-4,2.22473 -1.85343,2.5153 -4.13911,2.5153 -2.28478,0 -4.13821,-0.28149 -4.13821,-2.5153 -9e-4,-2.21565 1.85343,-4.03175 4.13821,-4.03175 2.28568,0 4.13911,1.8161 4.13911,4.03175 z"
       id="path121"
       style="fill:#e6e6e6;stroke:#000000;stroke-width:1.19999981;stroke-linecap:round;stroke-linejoin:round" />
    <path
       d="m 292.04455,253.59111 c 1.97058,2.58341 3.17562,5.80881 3.17562,9.81332 0,9.44375 -6.45022,10.61513 -14.39426,10.61513 -1.23229,0 -2.42008,-0.0363 -3.56337,-0.11804 2.60987,1.26219 6.22591,1.52553 10.25605,1.52553 7.95403,0 14.39517,-1.01702 14.39517,-8.98064 0,-6.32913 -4.23718,-10.35089 -9.80655,-12.87074 z"
       id="path123"
       style="opacity:0.15;stroke:none;stroke-width:1.19999981;stroke-linecap:round;stroke-linejoin:round" />
    <path
       d="m 338.03154,266.22848 c 0.01,7.95453 -6.44205,8.97155 -14.39517,8.97155 -7.95312,0 -14.39517,-1.01702 -14.39517,-8.97155 0,-7.95454 6.72084,-12.32954 14.39517,-14.3999 11.96601,-3.20361 14.39517,6.45444 14.39517,14.3999 z"
       id="path125"
       style="fill:#d7a762;fill-opacity:1;stroke:#000000;stroke-width:1.19999981;stroke-linecap:round;stroke-linejoin:round" />
    <path
       d="m 335.18374,270.66885 c 0.57665,2.15209 -1.14329,2.90577 -3.34724,3.496 -2.21304,0.59932 -4.07555,0.79909 -4.65128,-1.34391 -0.57664,-2.15209 0.74645,-4.37682 2.95949,-4.96705 2.20486,-0.59932 4.46239,0.67196 5.03813,2.81496 z"
       id="path127"
       style="fill:#e6e6e6;stroke:#000000;stroke-width:1.19999981;stroke-linecap:round;stroke-linejoin:round" />
    <path
       d="m 320.69232,273.42933 c -0.57664,2.15208 -2.43825,1.94323 -4.6422,1.353 -2.21394,-0.59024 -3.92298,-1.34392 -3.34725,-3.50508 0.57664,-2.14301 2.83418,-3.4052 5.03813,-2.81497 2.20395,0.59024 3.52705,2.81497 2.95132,4.96705 z"
       id="path129"
       style="fill:#e6e6e6;stroke:#000000;stroke-width:1.19999981;stroke-linecap:round;stroke-linejoin:round" />
    <path
       d="m 327.72826,272.53944 c 0.01,2.22473 -1.85343,2.5153 -4.1382,2.5153 -2.28568,0 -4.13911,-0.29057 -4.13911,-2.5153 0,-2.22473 1.85343,-4.03175 4.13911,-4.03175 2.28477,0 4.1382,1.80702 4.1382,4.03175 z"
       id="path131"
       style="fill:#e6e6e6;stroke:#000000;stroke-width:1.19999981;stroke-linecap:round;stroke-linejoin:round" />
    <path
       d="m 330.07388,251.61701 c 3.70685,2.86218 4.67852,8.65464 4.67852,13.76698 0,8.23603 -6.66726,9.27121 -14.93458,9.27121 -1.79077,0 -3.49073,-0.0545 -5.07445,-0.21793 2.42916,0.78092 5.47946,0.95345 8.79039,0.95345 7.95312,0 14.39516,-1.00793 14.39516,-8.96247 0,-6.23832 -1.5029,-13.50092 -7.89954,-14.8512 z"
       id="path133"
       style="opacity:0.15;stroke:none;stroke-width:1.19999981;stroke-linecap:round;stroke-linejoin:round" />
    <path
       d="m 300.91395,207.87431 c 2.86686,3.60951 -1.83981,13.03782 -4.02288,11.02012 -2.2321,-2.05674 -6.74626,-13.0369 -4.95912,-14.58967 1.65819,-1.49738 6.01524,-0.19342 9.03467,3.60042 z"
       id="path85"
       style="opacity:0.15;stroke:none;stroke-width:1.19999981;stroke-linecap:round;stroke-linejoin:round" />
    <path
       d="m 309.43735,209.56964 c -0.89084,3.6086 8.98018,13.03782 10.05809,11.01922 1.10698,-2.05583 -0.39411,-13.03691 -3.03123,-14.58968 -2.4791,-1.49738 -6.12148,-0.1925 -7.06227,3.60134 z"
       id="path87"
       style="opacity:0.15;stroke:none;stroke-width:1.19999981;stroke-linecap:round;stroke-linejoin:round" />
    <path
       d="m 339.88711,222.34471 c 0,-3.69796 -4.48407,-6.86826 -5.09718,-10.18255 -0.67088,-3.65227 2.13683,-8.49954 0.3639,-11.40859 -1.76603,-2.98666 -7.12535,-2.5271 -10.3418,-4.51792 -2.75598,-1.608 -4.5177,-6.75359 -8.49903,-7.51922 -3.06296,-0.59664 -6.96841,3.33843 -10.94974,3.33843 -3.95115,0 -7.88592,-3.92041 -10.94974,-3.30739 -3.92011,0.78115 -5.65769,5.95692 -8.3464,7.59509 -3.22335,1.95288 -8.57664,1.50885 -10.41338,4.43342 -1.78414,2.91768 0.98736,7.81065 0.28543,11.4086 -0.63726,3.30739 -5.13771,6.44665 -5.13771,10.10668 0,3.42292 4.68585,5.74999 5.66631,8.42194 1.10981,3.05563 0.56051,7.88652 2.71803,10.10668 3.20783,1.4778 7.96353,1.89942 11.17912,2.22878 4.83158,4.54809 10.6419,7.41145 14.39558,7.41145 3.92786,0 10.10811,-2.84095 15.0837,-7.36576 3.61398,-0.93462 10.25989,-1.04153 11.63874,-2.27447 2.15925,-2.18223 1.60736,-7.02864 2.71803,-10.10668 0.98046,-2.71075 5.67752,-5.03006 5.67752,-8.42194 z"
       id="path89"
       style="opacity:1;vector-effect:none;fill:#d7a762;fill-opacity:1;stroke:#000000;stroke-width:1.20000005;stroke-linecap:round;stroke-linejoin:round;stroke-miterlimit:4;stroke-dasharray:none;stroke-dashoffset:0;stroke-opacity:1" />
    <path
       d="m 311.72546,190.60205 c -2.07216,0.98722 -4.3004,2.23654 -6.56226,2.23654 -1.86347,0 -3.72695,-0.85788 -5.49298,-1.71491 1.41334,2.40984 4.85055,18.97697 6.63642,19.85813 2.81202,-3.30308 3.59587,-16.47314 5.41882,-20.37976 z m -21.22774,1.68991 c -1.30642,1.63559 -2.44468,3.40654 -3.82784,4.24977 -2.09716,1.27002 -5.08769,1.53299 -7.43234,2.36156 2.92844,1.66921 5.85947,3.32205 8.79912,4.97057 2.09026,0.57681 8.13599,5.84742 6.18973,1.11827 -1.22018,-4.23856 -2.46365,-8.47282 -3.72867,-12.70017 z m 30.40024,1.04412 c -1.19001,3.01855 -2.36362,6.04487 -3.53034,9.07118 -0.33545,2.02099 -4.10982,7.82617 0.17419,5.29389 5.37829,-2.42967 10.73933,-4.90849 16.08227,-7.40627 -2.28515,-1.84424 -6.65194,-1.74078 -9.42085,-3.45483 -1.20984,-0.70614 -2.20668,-2.10462 -3.30527,-3.50397 z m 13.14865,15.11087 c -3.46997,2.25206 -12.65972,8.16156 -15.038,11.23357 1.84795,2.26241 15.90377,-1.5554 19.1392,-0.22417 -1.3435,-2.45899 -3.79249,-4.75502 -4.25038,-7.13296 -0.23196,-1.18897 -0.0879,-2.52279 0.14918,-3.87644 z m -57.46846,0.24832 c 0.23713,1.35365 0.38114,2.68833 0.14918,3.8773 -0.45789,2.37707 -2.90688,4.67311 -4.25038,7.13296 3.23543,-1.33124 16.09866,2.48571 17.94661,0.2233 -2.37828,-3.072 -10.37544,-8.98151 -13.84541,-11.23356 z"
       id="path99"
       style="fill:#ba6240;fill-opacity:1;stroke:none;stroke-width:1.20000005;stroke-linecap:round;stroke-linejoin:round" />
    <g
       style="stroke:#000000;stroke-width:1.16747439;stroke-linecap:round;stroke-linejoin:round"
       transform="matrix(0.08583356,0,0,0.08547677,44.480006,274.51406)"
       id="g1336">
      <path
         style="fill:#ffffff;stroke:#000000;stroke-width:14.00969315;stroke-linecap:round;stroke-linejoin:round"
         id="path91"
         d="m 3202.32,-547.26 c 0,28.73 -23.7,52.06 -52.89,52.06 -29.25,0 -52.95,-23.33 -52.88,-52.13 0,-28.8 23.7,-52.13 52.88,-52.06 29.26,0 52.96,23.33 52.89,52.13 z" />
      <path
         style="stroke:#000000;stroke-width:14.00969315;stroke-linecap:round;stroke-linejoin:round"
         id="path93"
         d="m 3147.35,-537.03 c 0,6.09 -4.91,11 -11,11 -6.09,0 -11,-4.91 -11,-11 0,-6.09 4.91,-11 11,-11 6.1,0 11,4.95 11,11 z" />
    </g>
    <g
       style="stroke:#000000;stroke-width:1.16747439;stroke-linecap:round;stroke-linejoin:round"
       transform="matrix(0.08583356,0,0,0.08547677,42.392619,274.51406)"
       id="g1340">
      <path
         style="fill:#ffffff;stroke:#000000;stroke-width:14.00969315;stroke-linecap:round;stroke-linejoin:round"
         id="path95"
         d="m 2999.77,-547.26 c 0,28.8 -23.7,52.13 -52.89,52.13 -29.25,0 -52.88,-23.33 -52.88,-52.13 0,-28.8 23.7,-52.13 52.88,-52.13 29.26,0 52.89,23.33 52.89,52.13 z" />
      <path
         style="stroke:#000000;stroke-width:14.00969315;stroke-linecap:round;stroke-linejoin:round"
         id="path97"
         d="m 2967.07,-537.03 c 0,6.05 -4.91,11 -11,11 -6.09,0 -11,-4.95 -11,-11 0,-6.09 4.91,-11 11,-11 6.09,0 11,4.91 11,11 z" />
    </g>
    <path
       d="m 309.52544,243.40912 c -1.39484,0.2034 -2.42281,1.98954 -1.66273,3.23176 0.65383,0.48399 1.49019,-0.14075 1.86977,-0.69466 0.52034,-0.67287 0.81548,-1.86242 0.0799,-2.47717 -0.0881,-0.0445 -0.18798,-0.0699 -0.28696,-0.0599 z m -8.814,0.008 c -0.751,0.19523 -0.751,1.24222 -0.4822,1.81338 0.25518,0.84086 1.15692,1.8379 2.1086,1.49284 0.68562,-0.57116 0.3814,-1.66991 -0.0654,-2.31008 -0.34417,-0.52486 -0.88903,-1.02065 -1.56102,-0.99614 z"
       id="path101"
       style="stroke:none;stroke-width:1.19999981;stroke-linecap:round;stroke-linejoin:round" />
    <g
       style="stroke:#000000;stroke-width:0.86309594;stroke-linecap:round;stroke-linejoin:round"
       transform="matrix(0.11665539,0,0,0.11507392,-49.97638,287.7382)"
       id="g1344">
      <path
         style="fill:#e6e6e6;stroke:#000000;stroke-width:10.35715103;stroke-linecap:round;stroke-linejoin:round"
         id="path103"
         d="m 3076.37,-412.02 c 19.12,-20.35 -17.49,-120.81 -32.62,-111.31 -15.12,9.34 -43.46,87.24 -30.34,107.51 12.27,19.4 42.8,24.73 62.96,3.37 z" />
      <path
         style="opacity:0.15;stroke:none;stroke-width:10.35715103;stroke-linecap:round;stroke-linejoin:round"
         id="path105"
         d="m 3076.37,-412.02 c 19.12,-20.35 -17.49,-120.81 -32.62,-111.31 -1.44,0.88 -2.97,2.41 -4.65,4.47 16.08,0.48 40.33,96.1 20.16,114.16 -2.75,2.4 -5.69,4.42 -8.63,6 9.02,-1.09 18.16,-5.35 25.77,-13.41 z" />
    </g>
    <g
       style="stroke:#000000;stroke-width:1.23740268;stroke-linecap:round;stroke-linejoin:round"
       transform="matrix(0.08094792,0,0,0.08068114,59.838929,271.06838)"
       id="g1352">
      <path
         style="fill:#e6e6e6;stroke:#000000;stroke-width:14.84883404;stroke-linecap:round;stroke-linejoin:round"
         id="path107"
         d="m 3087.89,-691.03 c -10.47,-44.72 124.58,-156.02 137.89,-130.34 14.27,25.69 -9.51,158.88 -45.65,177.9 -33.38,17.32 -81.12,-0.18 -92.06,-47.09 z" />
      <path
         style="opacity:0.15;stroke:none;stroke-width:14.84883404;stroke-linecap:round;stroke-linejoin:round"
         id="path109"
         d="m 3176.43,-643.26 c 43.67,-13.83 71.28,-186.7 42.2,-185.12 -2.8,0.11 -6.23,1.11 -10.26,2.72 22.56,13.6 -19.48,169.77 -62.38,179.23 -5.89,1.27 -11.68,1.78 -17.13,1.7 13.86,5.66 30.19,6.88 47.66,1.38 z" />
    </g>
    <g
       style="stroke:#000000;stroke-width:1.23740268;stroke-linecap:round;stroke-linejoin:round"
       transform="matrix(0.08094792,0,0,0.08068114,56.206537,271.06838)"
       id="g1348">
      <path
         style="fill:#e6e6e6;stroke:#000000;stroke-width:14.84883404;stroke-linecap:round;stroke-linejoin:round"
         id="path111"
         d="m 3012.62,-691.97 c 11.79,-44.24 -118.89,-159.83 -133.16,-135.1 -14.64,25.21 5.22,159.82 40.14,178.86 32.81,18.36 81.03,2.36 93.49,-44.15 z" />
      <path
         style="opacity:0.15;stroke:none;stroke-width:14.84883404;stroke-linecap:round;stroke-linejoin:round"
         id="path135"
         d="m 2887.49,-830.32 c 42.08,30.19 97.52,91.14 89.66,120.64 l 0.55,-0.28 c -9.62,35.89 -40.49,53.4 -69.18,51.19 3.48,4.65 7.19,8.4 11.07,10.51 32.81,18.36 81.07,2.52 93.53,-43.99 l -0.56,0.27 c 10.56,-39.62 -93.06,-136.34 -125.07,-138.34 z" />
    </g>
    <path
       id="use1434"
       d="m 277.4707,236.29688 c 0.27114,1.78464 0.67872,3.45723 1.71485,4.52343 3.20783,1.4778 7.96409,1.89916 11.17968,2.22852 4.83158,4.54809 10.64086,7.41211 14.39454,7.41211 3.92786,0 10.10839,-2.84238 15.08398,-7.36719 3.61398,-0.93462 10.25982,-1.0405 11.63867,-2.27344 0.90222,-0.91182 1.3211,-2.29767 1.5957,-3.8164 -0.5676,0.6998 -1.11566,1.33125 -1.5957,1.8164 -1.37885,1.23294 -8.02469,1.33882 -11.63867,2.27344 -4.97559,4.52481 -11.15612,7.36719 -15.08398,7.36719 -3.75368,0 -9.56296,-2.86402 -14.39454,-7.41211 -3.21559,-0.32936 -7.97185,-0.75072 -11.17968,-2.22852 -0.63135,-0.64967 -1.19538,-1.53655 -1.71485,-2.52343 z"
       style="opacity:0.15;vector-effect:none;fill:#000000;fill-opacity:1;stroke:none;stroke-width:1.19999981;stroke-linecap:round;stroke-linejoin:round;stroke-miterlimit:4;stroke-dasharray:none;stroke-dashoffset:0;stroke-opacity:1" />
  </g>
</svg>
